<?xml version="1.0" encoding="UTF-8"?> <svg xmlns="http://www.w3.org/2000/svg" width="30" height="24" viewBox="0 0 30 24" fill="none"> <rect x="12" y="24" width="6" height="6" transform="rotate(-180 12 24)" fill="#1A1A1A"></rect> <rect x="12" y="18" width="6" height="6" transform="rotate(-180 12 18)" fill="#1A1A1A"></rect> <rect x="6" y="24" width="6" height="6" transform="rotate(-180 6 24)" fill="#1A1A1A"></rect> <rect x="6" y="18" width="6" height="6" transform="rotate(-180 6 18)" fill="#1A1A1A"></rect> <rect x="6" y="12" width="6" height="6" transform="rotate(-180 6 12)" fill="#1A1A1A"></rect> <rect x="12" y="6" width="6" height="6" transform="rotate(-180 12 6)" fill="#1A1A1A"></rect> <rect x="30" y="24" width="6" height="6" transform="rotate(-180 30 24)" fill="#1A1A1A"></rect> <rect x="30" y="18" width="6" height="6" transform="rotate(-180 30 18)" fill="#1A1A1A"></rect> <rect x="24" y="24" width="6" height="6" transform="rotate(-180 24 24)" fill="#1A1A1A"></rect> <rect x="24" y="18" width="6" height="6" transform="rotate(-180 24 18)" fill="#1A1A1A"></rect> <rect x="24" y="12" width="6" height="6" transform="rotate(-180 24 12)" fill="#1A1A1A"></rect> <rect x="30" y="6" width="6" height="6" transform="rotate(-180 30 6)" fill="#1A1A1A"></rect> </svg> 