<?xml version="1.0" encoding="UTF-8"?> <svg xmlns="http://www.w3.org/2000/svg" width="48" height="48" viewBox="0 0 48 48" fill="none"> <path fill-rule="evenodd" clip-rule="evenodd" d="M18 8H30V10H18V8ZM14 12V10H16H18V12H16H14ZM12 14V12H14V14H12ZM10 18L10 14H12V18H10ZM10 30H8V18H10L10 30ZM12 34H10L10 32L10 30H12V32V34ZM14 36H12V34H14V36ZM18 38H16H14V36H16H18V38ZM30 38V40H18V38H30ZM34 36V38H32H30V36H32H34ZM36 34V36H34V34H36ZM38 30V32V34H36V32V30H38ZM38 18H40V30H38V18ZM36 14H38V16V18H36V16V14ZM34 12H36V14H34V12ZM34 12V10H32H30V12H32H34ZM12 20H14H16H18H20H22H24H26H28H30H32H34H36V22V24H34V26H32H30H28V24H26V22H24H22V24H20V26H18H16H14V24H12V22V20ZM31 28V30H29V32H27H25H23H21V34H23H25H27H29V32H31V30H33V28H31Z" fill="#1A1A1A"></path> </svg> 