<?xml version="1.0" encoding="UTF-8"?> <svg xmlns="http://www.w3.org/2000/svg" width="117" height="23" viewBox="0 0 117 23" fill="none"><path d="M24.472 2.59974C22.5902 1.73908 20.5917 1.11182 18.5057 0.761719C18.2431 1.21394 17.9513 1.8266 17.7471 2.308C15.5284 1.98706 13.3256 1.98706 11.1375 2.308C10.9333 1.8266 10.6269 1.21394 10.3789 0.761719C8.27835 1.11182 6.27986 1.73908 4.4112 2.59974C0.633036 8.17217 -0.388094 13.6133 0.12247 18.9815C2.63152 20.8049 5.05307 21.9136 7.4323 22.643C8.0158 21.8553 8.54096 21.0092 8.99318 20.1194C8.13251 19.7984 7.3156 19.4045 6.52788 18.9377C6.7321 18.7919 6.93634 18.6315 7.12598 18.471C11.8815 20.6445 17.0324 20.6445 21.7295 18.471C21.9337 18.6315 22.1234 18.7919 22.3276 18.9377C21.5399 19.4045 20.723 19.7984 19.8623 20.1194C20.3145 21.0092 20.8397 21.8553 21.4232 22.643C23.8009 21.9136 26.2371 20.8049 28.733 18.9815C29.3602 12.7673 27.7396 7.36991 24.472 2.59974ZM9.6496 15.6701C8.22001 15.6701 7.05301 14.3719 7.05301 12.7819C7.05301 11.1918 8.19083 9.89348 9.6496 9.89348C11.0937 9.89348 12.2753 11.1918 12.2461 12.7819C12.2461 14.3719 11.0937 15.6701 9.6496 15.6701ZM19.2351 15.6701C17.8055 15.6701 16.637 14.3719 16.637 12.7819C16.637 11.1918 17.7763 9.89348 19.2351 9.89348C20.6792 9.89348 21.8608 11.1918 21.8316 12.7819C21.8316 14.3719 20.6938 15.6701 19.2351 15.6701Z" fill="#808080"></path><path d="M38.8418 5.34155H45.043C46.5309 5.34155 47.8 5.57492 48.8358 6.04174C49.8714 6.50856 50.6446 7.15045 51.1552 7.98188C51.6657 8.81341 51.9283 9.76155 51.9283 10.8411C51.9283 11.8913 51.6658 12.8396 51.126 13.7002C50.5863 14.5463 49.7694 15.2319 48.6753 15.7279C47.5813 16.2239 46.2246 16.4719 44.6054 16.4719H38.8418V5.34155ZM44.5324 13.6418C45.5389 13.6418 46.3121 13.3938 46.8519 12.8833C47.3916 12.3873 47.6688 11.6871 47.6688 10.8265C47.6688 10.0241 47.4208 9.38226 46.9394 8.90094C46.458 8.41953 45.7287 8.17153 44.7513 8.17153H42.8111V13.6418H44.5324Z" fill="#808080"></path><path d="M61.587 16.4581C60.7263 16.2393 59.9532 15.9183 59.2676 15.4807V12.8403C59.7928 13.2488 60.4783 13.5697 61.3536 13.8323C62.2288 14.0949 63.0749 14.2262 63.8919 14.2262C64.2711 14.2262 64.5628 14.1824 64.7525 14.0803C64.9421 13.9782 65.0442 13.8615 65.0442 13.7156C65.0442 13.5551 64.9859 13.4238 64.8838 13.3217C64.7816 13.2196 64.5774 13.1321 64.2711 13.0445L62.3601 12.6216C61.2661 12.3736 60.4929 12.0089 60.0261 11.5712C59.5593 11.1336 59.3405 10.5355 59.3405 9.80614C59.3405 9.19343 59.5448 8.65376 59.9385 8.20153C60.347 7.74929 60.916 7.39917 61.66 7.15117C62.4039 6.90327 63.2646 6.77197 64.2711 6.77197C65.1609 6.77197 65.9778 6.8595 66.7218 7.06374C67.4657 7.25329 68.0784 7.50129 68.5598 7.79306V10.2875C68.0638 9.99578 67.4804 9.76237 66.8385 9.58731C66.182 9.41226 65.5111 9.32473 64.8254 9.32473C63.8334 9.32473 63.3375 9.49979 63.3375 9.83531C63.3375 9.99579 63.4104 10.1125 63.5709 10.2C63.7314 10.2876 64.0085 10.3605 64.4169 10.448L66.007 10.7398C67.0427 10.9147 67.8158 11.2357 68.3264 11.6879C68.837 12.1402 69.085 12.7965 69.085 13.6864C69.085 14.6492 68.6619 15.4223 67.8158 15.9767C66.9698 16.5456 65.7736 16.8227 64.2273 16.8227C63.3229 16.7935 62.4476 16.6768 61.587 16.4581Z" fill="#808080"></path><path d="M73.0237 16.123C72.1193 15.6708 71.4191 15.0727 70.9669 14.3141C70.5001 13.5556 70.2812 12.6949 70.2812 11.7321C70.2812 10.784 70.5147 9.92327 70.9961 9.17937C71.4775 8.42078 72.1776 7.83725 73.0967 7.39969C74.0157 6.97664 75.1243 6.75781 76.408 6.75781C77.998 6.75781 79.311 7.09334 80.3613 7.76431V10.6673C79.9965 10.4193 79.559 10.2004 79.063 10.0546C78.567 9.89409 78.0418 9.82115 77.4876 9.82115C76.4956 9.82115 75.7371 9.99621 75.1681 10.3609C74.6138 10.7256 74.3366 11.1924 74.3366 11.7759C74.3366 12.3448 74.5992 12.8116 75.1535 13.1764C75.6932 13.541 76.481 13.7306 77.5021 13.7306C78.0272 13.7306 78.5524 13.6577 79.063 13.4972C79.5736 13.3367 80.0257 13.1618 80.3904 12.9284V15.7437C79.2234 16.4439 77.8668 16.794 76.3351 16.794C75.0368 16.794 73.9427 16.5606 73.0237 16.123Z" fill="#808080"></path><path d="M84.5215 16.123C83.6025 15.6708 82.9023 15.0727 82.4209 14.2996C81.9395 13.5264 81.6915 12.6658 81.6915 11.7029C81.6915 10.7548 81.9395 9.89409 82.4209 9.15019C82.9023 8.40619 83.6025 7.82266 84.5069 7.39969C85.4113 6.97664 86.5053 6.75781 87.7613 6.75781C89.0159 6.75781 90.1099 6.96205 91.0144 7.39969C91.9188 7.82266 92.619 8.40619 93.1004 9.15019C93.5818 9.89409 93.8152 10.7402 93.8152 11.7029C93.8152 12.6512 93.5818 13.5264 93.1004 14.2996C92.619 15.0727 91.9334 15.6853 91.0144 16.123C90.0954 16.5606 89.0159 16.794 87.7613 16.794C86.5199 16.794 85.4405 16.5606 84.5215 16.123ZM89.3514 13.3076C89.7307 12.9284 89.9349 12.4032 89.9349 11.7759C89.9349 11.1341 89.7452 10.6381 89.3514 10.2588C88.9576 9.87951 88.4324 9.68986 87.7759 9.68986C87.0904 9.68986 86.5637 9.87951 86.1699 10.2588C85.7906 10.6381 85.5864 11.1341 85.5864 11.7759C85.5864 12.4178 85.776 12.9284 86.1699 13.3076C86.5637 13.7014 87.0904 13.8911 87.7759 13.8911C88.4324 13.8765 88.9722 13.6868 89.3514 13.3076Z" fill="#808080"></path><path d="M103.576 7.34063V10.7688C103.167 10.5062 102.642 10.3749 102 10.3749C101.154 10.3749 100.497 10.6375 100.046 11.148C99.5928 11.6586 99.3594 12.4609 99.3594 13.5403V16.4579H95.4648V7.18016H99.287V10.1415C99.4912 9.06194 99.8413 8.25968 100.308 7.7491C100.775 7.23851 101.388 6.96143 102.131 6.96143C102.686 6.96143 103.167 7.09272 103.576 7.34063Z" fill="#808080"></path><path d="M116.706 5.02075V16.4719H112.811V14.3859C112.475 15.1737 111.979 15.7718 111.308 16.1802C110.636 16.5886 109.804 16.7929 108.812 16.7929C107.937 16.7929 107.164 16.574 106.507 16.151C105.851 15.728 105.341 15.1299 104.991 14.3859C104.641 13.6274 104.466 12.7813 104.466 11.8477C104.451 10.8703 104.641 9.99512 105.034 9.22195C105.414 8.44886 105.968 7.85075 106.668 7.4131C107.369 6.97545 108.17 6.75663 109.075 6.75663C110.928 6.75663 112.169 7.55898 112.811 9.17818V5.02075H116.706ZM112.228 13.2335C112.621 12.8542 112.825 12.3436 112.825 11.731C112.825 11.1329 112.636 10.6515 112.242 10.2869C111.849 9.92218 111.323 9.73254 110.665 9.73254C110.009 9.73254 109.483 9.92218 109.09 10.3015C108.696 10.6807 108.506 11.1621 108.506 11.7748C108.506 12.3874 108.696 12.8688 109.09 13.2481C109.483 13.6274 109.994 13.8171 110.65 13.8171C111.308 13.8171 111.833 13.6274 112.228 13.2335Z" fill="#808080"></path><path d="M55.5199 7.73452C56.6386 7.73452 57.5475 6.91805 57.5475 5.91108C57.5475 4.90397 56.6386 4.08765 55.5199 4.08765C54.3995 4.08765 53.4922 4.90397 53.4922 5.91108C53.4922 6.91805 54.3995 7.73452 55.5199 7.73452Z" fill="#808080"></path><path d="M57.5475 8.98804C56.3075 9.52771 54.7613 9.5423 53.4922 8.98804V16.4714H57.5475V8.98804Z" fill="#808080"></path></svg> 