<?xml version="1.0" encoding="UTF-8"?> <svg xmlns="http://www.w3.org/2000/svg" width="72" height="72" viewBox="0 0 72 72" fill="none"> <path fill-rule="evenodd" clip-rule="evenodd" d="M45 12H27V15H24H21V18H18V21H15L15 27H12L12 45H15V48V51H18V54H21V57H24H27V60H45V57H48H51V54H54V51H57V48V45H60V27H57L57 24V21H54V18H51V15H48H45V12ZM45 15V18H48H51V21H54V24V27H57L57 45H54V48V51H51V54H48H45V57H27V54H24H21V51H18V48V45H15L15 27H18V21H21V18H24H27V15H45ZM19.5 31.5V34.5H22.5V37.5H25.5H28.5V34.5H31.5V31.5H28.5V34.5H25.5H22.5V31.5H19.5ZM40.5 31.5H43.5V34.5H40.5V31.5ZM49.5 34.5V37.5H46.5H43.5V34.5H46.5H49.5ZM49.5 34.5V31.5H52.5V34.5H49.5ZM36 46.5H39H42V49.5H39H36H33H30V46.5H33H36ZM30 46.5H27V43.5H30V46.5ZM42 46.5V43.5H45V46.5H42Z" fill="#1A1A1A"></path> </svg> 