<?xml version="1.0" encoding="UTF-8"?> <svg xmlns="http://www.w3.org/2000/svg" width="190" height="32" viewBox="0 0 190 32" fill="none"><g clip-path="url(#clip0_675_18030)"><path d="M96.4414 25.8184H98.3995L100.255 21.5962H107.007L108.863 25.8184H110.842L104.416 11.3366H102.846L96.4414 25.8184ZM100.99 19.8829L103.621 13.9066L106.252 19.8829H100.99ZM112.877 25.8184H117.038C121.484 25.8184 124.748 22.7181 124.748 18.5775C124.748 14.4369 121.484 11.3366 117.038 11.3366H112.877V25.8184ZM114.774 24.0439V13.1111H117.038C120.526 13.1111 122.83 15.4363 122.83 18.5775C122.83 21.7186 120.526 24.0439 117.038 24.0439H114.774ZM131.545 25.8184H133.136L139.296 11.3366H137.235L132.36 22.8404L127.466 11.3366H125.365L131.545 25.8184ZM141.42 25.8184H143.317V11.3366H141.42V25.8184ZM145.974 23.4524C146.729 24.9413 148.667 26.0632 151.053 26.0632C153.746 26.0632 155.662 24.513 155.662 22.045C155.662 19.9033 154.439 18.6795 152.297 17.8636L150.543 17.1905C149.075 16.6397 148.361 16.0891 148.361 14.8652C148.361 13.6618 149.544 12.8663 150.972 12.8663C152.216 12.8663 153.113 13.4171 153.848 14.2942L155.235 13.0703C154.337 11.9077 152.828 11.0918 151.012 11.0918C148.422 11.0918 146.485 12.5808 146.485 14.9468C146.485 16.9254 147.504 18.1084 149.768 18.9446L151.685 19.6789C153.032 20.1888 153.766 20.964 153.766 22.1266C153.766 23.4728 152.582 24.2886 151.093 24.2886C149.462 24.2886 148.279 23.534 147.504 22.3101L145.974 23.4524ZM172.423 18.5775C172.423 14.3758 169.118 11.0918 164.937 11.0918C160.776 11.0918 157.451 14.3758 157.451 18.5775C157.451 22.7792 160.776 26.0632 164.937 26.0632C169.118 26.0632 172.423 22.7792 172.423 18.5775ZM159.369 18.5775C159.369 15.3955 161.776 12.8867 164.937 12.8867C168.119 12.8867 170.526 15.3955 170.526 18.5775C170.526 21.7594 168.119 24.2682 164.937 24.2682C161.776 24.2682 159.369 21.7594 159.369 18.5775ZM175.283 25.8184H177.18V19.2301H178.587L184.156 25.8184H186.542L180.974 19.2098C183.196 18.8834 184.543 17.4557 184.543 15.3343C184.543 12.9479 182.89 11.3366 180.219 11.3366H175.283V25.8184ZM177.18 17.5372V13.0907H179.994C181.647 13.0907 182.646 13.8658 182.646 15.3343C182.646 16.7825 181.647 17.5372 179.994 17.5372H177.18Z" fill="#1A1A1A"></path><path d="M90.4407 18.3781C89.8917 17.2798 88.8849 16.5385 86.78 15.6507C85.0594 14.9277 84.19 14.4335 83.6592 13.857C83.229 13.3902 83.1009 13.0058 83.1467 12.3103C83.1833 11.6605 83.348 11.2761 83.7507 10.846C84.2723 10.2877 84.9862 10.0955 85.8465 10.2785C87.2558 10.5714 88.1528 11.5507 88.9307 13.6099C89.2053 14.342 89.2418 14.3694 89.7361 14.1864L90.0472 14.0674L90.0381 13.2255C90.029 12.7587 90.0106 11.7795 89.9832 11.0564L89.9466 9.71111L89.7086 9.61044C88.4181 9.06132 85.9654 8.72269 84.373 8.86912C82.5609 9.03387 81.2247 9.61044 80.1997 10.6721C79.1839 11.7245 78.7171 12.9692 78.7995 14.4427C78.8636 15.6598 79.2296 16.5385 79.98 17.298C80.6757 18.0119 81.2613 18.3506 82.9361 19.0003C85.636 20.0528 86.359 20.6843 86.3498 21.9839C86.3498 23.0821 85.7641 23.8875 84.7025 24.2627C84.3272 24.4 83.3663 24.4 82.8538 24.2627C81.5085 23.9058 80.4834 22.7435 79.6049 20.5837L79.376 20.0345L79.1106 20.0436C78.9642 20.0528 78.7628 20.0986 78.6713 20.1444L78.4883 20.2267L78.5066 21.1693C78.5157 21.691 78.5432 22.7801 78.5615 23.6038L78.5981 25.0864L78.9001 25.2145C79.5134 25.4799 81.3621 25.8826 82.5151 26.0108C82.6616 26.029 83.4487 26.029 84.2723 26.0199C85.7 26.0016 85.8008 25.9924 86.5237 25.8094C88.647 25.2511 90.0197 24.0706 90.6239 22.2767C90.8069 21.7276 90.8343 21.5537 90.8618 20.7392C90.8984 19.6593 90.7977 19.0919 90.4407 18.3781Z" fill="#1A1A1A"></path><path d="M74.0382 9.47241C72.2536 8.57552 69.4896 8.63959 67.4671 9.628C65.5543 10.5615 64.2365 12.1173 63.5043 14.3138C63.1199 15.4578 63.0009 16.3821 63.0376 17.8648C63.065 18.7983 63.1016 19.2833 63.2023 19.7226C63.9527 23.0905 66.2682 25.3785 69.4896 25.9643C70.2035 26.0924 71.8142 26.0924 72.5372 25.9734C73.5623 25.7904 74.7428 25.342 75.4934 24.8294C76.3994 24.2162 77.3421 23.2919 77.3421 22.999C77.3421 22.8251 77.0308 22.4225 76.8936 22.4225C76.8387 22.4225 76.5824 22.5506 76.3353 22.7154C75.4476 23.2919 74.5965 23.5298 73.4067 23.5298C71.7777 23.5298 70.7343 23.118 69.7001 22.0747C69.2426 21.6079 69.0503 21.3608 68.8124 20.894C68.2908 19.8782 68.007 18.7159 67.9613 17.398L67.943 16.8306L72.7569 16.8122L77.5708 16.794L77.5891 16.4645C77.5983 16.2815 77.58 15.8147 77.5342 15.4212C77.2322 12.4925 76.0516 10.4791 74.0382 9.47241ZM69.1876 15.4029L67.9704 15.4212V15.1558C67.9704 15.0094 68.0162 14.625 68.0619 14.3046C68.4647 11.6872 69.4439 10.1131 70.6703 10.1131C71.796 10.1131 72.4915 11.6597 72.638 14.4969L72.6745 15.3022L71.5397 15.3388C70.9174 15.3663 69.8557 15.3938 69.1876 15.4029Z" fill="#1A1A1A"></path><path d="M56.5894 9.16185C56.205 9.07948 55.8573 9.07033 55.116 9.08863C53.9902 9.12524 53.2215 9.29913 52.3795 9.68351C52.105 9.81164 51.8578 9.92145 51.8395 9.92145C51.8212 9.92145 51.8212 8.21919 51.8487 6.15085C51.8761 3.22223 51.867 2.37109 51.803 2.37109C51.5925 2.37109 44.9482 3.63407 44.8749 3.68897C44.82 3.73474 44.8017 3.87202 44.8108 4.08251C44.8292 4.44859 44.7925 4.42113 45.5979 4.60417C45.845 4.65909 46.1287 4.76891 46.2294 4.84212C46.504 5.03432 46.7236 5.4553 46.8791 6.05019C46.9981 6.51693 47.0165 6.85556 47.0714 10.0496C47.1263 13.3077 47.1171 16.6481 47.0256 22.78L46.989 25.3242L47.4649 25.434C48.1513 25.5896 50.1281 25.9191 50.7688 25.9831C51.7114 26.0839 53.9262 26.0655 54.6217 25.9649C57.6785 25.5072 59.9756 23.7318 61.0464 21.0228C61.3301 20.2998 61.6046 19.1924 61.6962 18.3779C61.806 17.4169 61.7419 15.4858 61.5773 14.7079C60.9457 11.7335 59.097 9.68351 56.5894 9.16185ZM51.9494 24.5188C51.867 24.2992 51.7663 16.6756 51.803 13.628L51.8304 11.2485L52.2605 11.1204C52.5442 11.038 52.8829 10.9922 53.2764 10.9922C53.8255 10.9922 53.8987 11.0105 54.3655 11.2393C55.482 11.7885 56.2508 13.1704 56.6077 15.257C56.7358 16.0258 56.7542 18.1399 56.6352 19.0643C56.3423 21.3339 55.601 23.1735 54.6126 24.0613C54.2191 24.4182 53.8529 24.6012 53.377 24.6927C53.0384 24.7568 52.9286 24.7568 52.3155 24.7111C52.0592 24.6927 52.0042 24.6653 51.9494 24.5188Z" fill="#1A1A1A"></path><path d="M44.1756 8.81445C43.416 8.81445 43.0133 8.89681 42.4 9.18052C41.2835 9.69303 40.4507 10.5259 39.7003 11.8804L39.4623 12.3013L39.4898 11.5509C39.508 11.1391 39.5355 10.3703 39.5538 9.83947L39.5813 8.87851H39.4257C39.2244 8.87851 32.7722 10.1689 32.58 10.2513C32.4519 10.3062 32.4336 10.3611 32.4336 10.6723C32.4336 10.9926 32.4519 11.0292 32.58 11.0567C32.6624 11.075 32.9552 11.1299 33.239 11.1848C33.8064 11.2946 33.9803 11.3861 34.2182 11.6973C34.6483 12.2738 34.7399 13.2806 34.7399 17.5729C34.7399 21.0781 34.6667 22.8261 34.4928 23.3752C34.2914 24.0433 33.9254 24.3911 33.2939 24.5009C33.0925 24.5375 32.818 24.5924 32.699 24.6199L32.4702 24.6656L32.4519 25.1141C32.4427 25.4253 32.4611 25.5808 32.516 25.6174C32.5617 25.6449 34.7673 25.6632 37.4123 25.654L42.2262 25.6358L42.2445 25.1324C42.2536 24.8579 42.2445 24.629 42.2079 24.629C41.8326 24.629 40.6887 24.4735 40.5056 24.4002C39.9657 24.1715 39.7003 23.6863 39.5904 22.698C39.4532 21.5357 39.3799 18.6436 39.4165 16.2825C39.4531 13.8938 39.4531 13.8846 39.5995 13.7199C39.9473 13.3446 40.8351 13.0519 41.6221 13.0519C42.2536 13.0519 42.9126 13.2165 43.6081 13.546C43.9467 13.7108 44.2487 13.8205 44.2945 13.8114C44.386 13.7748 45.9602 9.60152 45.9602 9.40932C45.9693 9.10731 45.0724 8.81445 44.1756 8.81445Z" fill="#1A1A1A"></path><path d="M32.4442 16.0707C32.1055 13.1787 30.8792 11.0646 28.8566 9.87487C26.6144 8.55698 23.2006 8.47461 20.7754 9.69182C19.0273 10.5704 17.5905 12.2635 16.959 14.2037C16.3001 16.208 16.3001 18.8438 16.959 20.8938C17.38 22.2026 17.9474 23.1635 18.8261 24.0329C19.8785 25.0762 21.2604 25.7444 22.8346 25.9731C23.402 26.0555 25.1775 26.0555 25.7632 25.9731C26.0378 25.9365 26.5137 25.8267 26.8248 25.7444C29.6894 24.9116 31.6388 22.7151 32.3069 19.5668C32.4808 18.8163 32.5448 16.9494 32.4442 16.0707ZM25.205 24.7285C23.4295 25.2593 22.1573 23.5662 21.6632 20.0152C21.5076 18.8712 21.5076 15.7413 21.6632 14.4325C22.011 11.5771 22.8895 10.1311 24.2806 10.122C24.903 10.122 25.2507 10.2776 25.7449 10.7626C26.9072 11.9341 27.4655 14.1763 27.4563 17.6998C27.4472 20.5094 27.1727 22.2757 26.5412 23.4747C26.23 24.0513 25.6625 24.5912 25.205 24.7285Z" fill="#1A1A1A"></path><path d="M8.9505 4.58582H11.0005C13.3526 4.58582 13.7369 4.63159 14.5698 5.04342C15.7779 5.6383 16.6564 6.80975 17.4343 8.85064C17.7456 9.68347 17.7456 9.67431 18.4411 9.46382L18.9079 9.32654L18.862 6.3247C18.8346 4.67734 18.798 3.20388 18.7798 3.05745L18.7339 2.80119L9.75587 2.78289C4.81382 2.77374 0.677127 2.78289 0.567303 2.80119L0.347656 2.8378L0.36596 3.36861L0.384264 3.89943L1.07066 3.9818C1.95841 4.09162 2.48922 4.33873 2.80038 4.79632C3.50509 5.83049 3.63321 7.23989 3.63321 13.9208C3.63321 21.041 3.48677 22.7707 2.80038 23.6676C2.44345 24.1344 2.15974 24.2808 1.36352 24.4273C0.3202 24.6194 0.356808 24.592 0.356808 25.132C0.356808 25.434 0.384264 25.5896 0.439176 25.617C0.558151 25.6627 12.0438 25.672 12.1628 25.617C12.3185 25.553 12.3092 24.7109 12.1537 24.6286C12.0896 24.592 11.7052 24.5188 11.2934 24.4547C10.8815 24.3907 10.424 24.29 10.2867 24.2259C9.53622 23.8964 9.11523 22.9904 8.95965 21.3522C8.84983 20.1807 8.7583 18.0118 8.7583 16.4102V14.9459L9.45386 14.9641C10.9457 15.0099 11.7143 15.0923 12.0256 15.2295C12.7028 15.5315 13.2428 16.3552 13.5265 17.5175L13.6729 18.1399L14.2037 18.1582L14.7346 18.1765V10.3699L14.2037 10.3882L13.6729 10.4065L13.5173 11.0196C13.2153 12.2185 12.7303 12.9507 12.0072 13.2893C11.7143 13.4266 11.5039 13.4632 10.7992 13.509C10.3324 13.5364 9.68266 13.5639 9.34403 13.5639H8.74V11.6237C8.74 9.68347 8.84068 5.56508 8.9139 4.92445L8.9505 4.58582Z" fill="#1A1A1A"></path></g><defs><clipPath id="clip0_675_18030"><rect width="189.63" height="32" fill="white" transform="translate(0.183594)"></rect></clipPath></defs></svg> 