<?xml version="1.0" encoding="UTF-8"?> <svg xmlns="http://www.w3.org/2000/svg" width="220" height="28" viewBox="0 0 220 28" fill="none"><path d="M117.519 23.2V21.952H109.455V11.648H115.663V10.4H109.455V1.56796H117.071V0.319965H107.887V23.2H117.519ZM124.761 23.2C129.721 23.2 131.961 20.416 131.961 15.776V7.71197C131.961 2.97597 129.593 0.319965 124.761 0.319965H120.025V23.2H124.761ZM124.633 21.92H121.593V1.56796H124.633C128.729 1.56796 130.361 3.80797 130.361 7.67997V15.776C130.361 19.712 128.697 21.92 124.633 21.92ZM140.356 23.424C144.1 23.424 146.116 21.376 146.116 17.248V0.319965H144.548V17.12C144.548 20.672 143.076 22.112 140.356 22.112C137.668 22.112 136.164 20.704 136.164 17.344V0.319965H134.596V17.408C134.596 21.504 136.836 23.424 140.356 23.424ZM155.247 23.456C158.671 23.456 161.263 21.6 161.359 17.024H159.887C159.791 20.672 157.903 22.144 155.247 22.144C151.951 22.144 150.287 19.968 150.287 16.032V7.48796C150.287 3.58396 152.143 1.37596 155.183 1.37596C157.775 1.37596 159.375 2.62397 159.599 5.91997H161.135C160.943 1.75997 158.415 0.0639648 155.151 0.0639648C151.343 0.0639648 148.719 2.84796 148.719 7.48796V16.064C148.719 20.704 151.087 23.456 155.247 23.456ZM163.705 23.2L165.049 16.928H171.769L173.145 23.2H174.681L169.593 0.319965H167.321L162.233 23.2H163.705ZM171.481 15.68H165.337L168.409 1.56796L171.481 15.68ZM180.164 23.2L180.196 1.56796H184.868V0.319965H173.988V1.56796H178.628V23.2H180.164ZM188.559 23.2V0.319965H186.991V23.2H188.559ZM198.201 23.456C202.265 23.456 204.889 20.576 204.889 16V7.42396C204.889 2.91196 202.265 0.0639648 198.201 0.0639648C194.105 0.0639648 191.481 2.91196 191.481 7.45596V16.064C191.481 20.608 194.105 23.456 198.201 23.456ZM198.201 22.144C194.905 22.144 193.081 19.872 193.081 16.064V7.45596C193.081 3.64796 194.873 1.37596 198.201 1.37596C201.433 1.37596 203.289 3.74396 203.289 7.45596V16.032C203.289 19.744 201.433 22.144 198.201 22.144ZM209.092 23.2V2.65596L217.412 23.2H219.14V0.319965H217.732V20.032L209.7 0.319965H207.684V23.2H209.092Z" fill="black"></path><path d="M99.5969 0H98.7969V22.4H99.5969V0Z" fill="black"></path><path d="M75.0855 0.317383V12.5963L71.2199 0.317383H67.3984V22.836H71.2199V11.805L74.6744 22.836H78.907V0.317383H75.0855Z" fill="black"></path><path d="M9.71485 4.13195V0.317383H4.21993H0.716487H0.398438V22.836H4.21993V13.1824H7.76252V9.36783H4.21993V4.13195H9.71485Z" fill="black"></path><path d="M16.009 17.8616V5.29448C16.009 4.47715 16.6728 3.81457 17.4916 3.81457C18.3023 3.81457 18.9595 4.47059 18.9595 5.27983V17.8616C18.9595 18.6789 18.2957 19.3415 17.4769 19.3415C16.6581 19.3415 15.9943 18.6789 15.9943 17.8616M12.1875 5.29448V17.8616C12.1875 20.7856 14.5622 23.156 17.4916 23.156C20.421 23.156 22.7957 20.7856 22.7957 17.8616V5.29204C22.7943 2.36893 20.42 0 17.4916 0C14.5622 0 12.1875 2.37042 12.1875 5.29448Z" fill="black"></path><path d="M50.0222 0.317383H39.4336V4.13195H42.8172V22.836H46.6386V4.13195H50.0222V0.317383Z" fill="black"></path><path d="M59.9586 0.317383V17.859C59.9586 18.6764 59.2948 19.3389 58.476 19.3389C57.6572 19.3389 56.9934 18.6764 56.9934 17.859V0.317383H53.1719V17.859C53.1719 20.7831 55.5466 23.1535 58.476 23.1535C61.4053 23.1535 63.7801 20.7831 63.7801 17.859V0.317383H59.9586Z" fill="black"></path><path d="M91.9649 4.13195V0.317383H82.6484V22.836H91.9649V19.0215H86.4699V13.1824H90.015V9.36783H86.4699V4.13195H91.9649Z" fill="black"></path><path d="M37.6854 22.836H33.7367L30.9109 12.1445C30.9109 12.1445 33.3404 11.7074 33.3404 9.1285V5.61675C33.3404 4.80751 32.6831 4.15149 31.8724 4.15149H30.4045V22.836H26.5781V0.317383H31.8651C34.6972 0.322377 37.0253 2.54839 37.1521 5.37254V9.05768C37.1521 11.28 36.4181 12.8845 35.0896 13.9053L37.6854 22.836Z" fill="black"></path></svg> 