<?xml version="1.0" encoding="UTF-8"?> <svg xmlns="http://www.w3.org/2000/svg" width="72" height="72" viewBox="0 0 72 72" fill="none"> <path fill-rule="evenodd" clip-rule="evenodd" d="M34.5 12H31.5V15H28.5V18V21H25.5V24V27H22.5V30V33H19.5V36V39H22.5H25.5H28.5V42H25.5V45V48H22.5V51V54H19.5V57V60H22.5H25.5V57H28.5V54H31.5V51H34.5V48H37.5V45H40.5V42H43.5V39H46.5V36H49.5V33V30H46.5H43.5H40.5V27H43.5V24H46.5V21H49.5V18H52.5V15V12H49.5H46.5H43.5H40.5H37.5H34.5ZM49.5 15V18H46.5V21H43.5V24H40.5V27H37.5V30H34.5V33H37.5H40.5H43.5H46.5V36H43.5V39H40.5V42H37.5V45H34.5V48H31.5V51H28.5V54H25.5V51V48H28.5V45V42H31.5V39V36H28.5H25.5H22.5V33H25.5V30V27H28.5V24V21H31.5V18V15H34.5H37.5H40.5H43.5H46.5H49.5ZM25.5 54H22.5V57H25.5V54Z" fill="#1A1A1A"></path> </svg> 