<?xml version="1.0" encoding="UTF-8"?> <svg xmlns="http://www.w3.org/2000/svg" width="163" height="28" viewBox="0 0 163 28" fill="none"><g clip-path="url(#clip0_675_18026)"><path d="M23.6361 8.63802V9.78254C22.9786 8.93105 21.7612 8.34499 20.3513 8.34499C17.019 8.34499 14.5391 11.2927 14.5391 14.7538C14.5391 18.3125 16.994 21.1625 20.3513 21.1625C21.7612 21.1625 22.9786 20.6016 23.6361 19.7V20.847H27.7859V8.63802H23.6361ZM29.2307 3.22852V20.8495H33.5355V14.3381C33.5355 13.0708 34.1429 12.3145 35.1154 12.3145C36.0878 12.3145 36.6003 12.9731 36.6003 14.1903V20.8495H40.885V13.1735C40.885 10.2008 39.2801 8.34749 36.7002 8.34749C36.0862 8.32512 35.4755 8.44817 34.9178 8.70665C34.3601 8.96513 33.8711 9.35177 33.4904 9.83513V3.23102L29.2307 3.22852ZM68.6109 14.7487C68.6109 18.4052 65.8135 21.1575 62.0913 21.1575C58.3689 21.1575 55.5716 18.4027 55.5716 14.7487C55.5716 11.0948 58.3689 8.34001 62.0913 8.34001C65.8135 8.34001 68.6109 11.0948 68.6109 14.7487ZM54.8417 14.7487C54.8417 18.4052 52.0443 21.1575 48.3246 21.1575C44.6048 21.1575 41.805 18.4027 41.805 14.7487C41.805 11.0948 44.6023 8.34001 48.3246 8.34001C52.0468 8.34001 54.8417 11.0948 54.8417 14.7487ZM0.625 8.633L5.82968 20.9397L3.9573 25.3749H8.52951L15.4616 8.633H10.9044L8.08204 15.798L5.28471 8.633H0.625ZM21.2263 17.2581C20.8946 17.2655 20.5647 17.206 20.2564 17.0832C19.9481 16.9603 19.6677 16.7766 19.4316 16.543C19.1956 16.3094 19.0088 16.0306 18.8826 15.7232C18.7563 15.4158 18.6929 15.0862 18.6963 14.7538C18.6933 14.4214 18.7569 14.0919 18.8832 13.7847C19.0097 13.4775 19.1964 13.1989 19.4323 12.9653C19.6683 12.7317 19.9486 12.548 20.2568 12.425C20.5649 12.3021 20.8946 12.2423 21.2263 12.2494C21.5556 12.2457 21.8823 12.3079 22.1872 12.4325C22.4922 12.5571 22.7693 12.7414 23.0021 12.9747C23.235 13.208 23.419 13.4855 23.5434 13.791C23.6677 14.0966 23.7298 14.4238 23.726 14.7538C23.7301 15.0838 23.6682 15.4113 23.544 15.7169C23.4198 16.0226 23.2358 16.3003 23.0028 16.5337C22.77 16.767 22.4928 16.9514 22.1877 17.0758C21.8825 17.2001 21.5557 17.2622 21.2263 17.2581ZM50.7569 14.7538C50.7646 14.4304 50.7073 14.1089 50.5881 13.8084C50.4689 13.5078 50.2904 13.2344 50.0634 13.0046C49.8363 12.7748 49.5653 12.5932 49.2664 12.4707C48.9677 12.3483 48.6474 12.2875 48.3246 12.2919C48.0018 12.2875 47.6814 12.3483 47.3826 12.4707C47.0839 12.5932 46.8129 12.7748 46.5858 13.0046C46.3586 13.2344 46.1802 13.5078 46.0611 13.8084C45.9419 14.1089 45.8844 14.4304 45.8923 14.7538C45.8844 15.0771 45.9419 15.3986 46.0611 15.6992C46.1802 15.9997 46.3586 16.2731 46.5858 16.503C46.8129 16.7327 47.0839 16.9144 47.3826 17.0368C47.6814 17.1593 48.0018 17.22 48.3246 17.2156C48.6474 17.22 48.9677 17.1593 49.2664 17.0368C49.5653 16.9144 49.8363 16.7327 50.0634 16.503C50.2904 16.2731 50.4689 15.9997 50.5881 15.6992C50.7073 15.3986 50.7646 15.0771 50.7569 14.7538ZM64.5236 14.7538C64.5313 14.4304 64.4739 14.1089 64.3548 13.8084C64.2356 13.5078 64.0571 13.2344 63.8301 13.0046C63.6029 12.7748 63.3319 12.5932 63.0331 12.4707C62.7343 12.3483 62.414 12.2875 62.0913 12.2919C61.7685 12.2875 61.4481 12.3483 61.1493 12.4707C60.8505 12.5932 60.5796 12.7748 60.3524 13.0046C60.1254 13.2344 59.9469 13.5078 59.8277 13.8084C59.7086 14.1089 59.6511 14.4304 59.6589 14.7538C59.6511 15.0771 59.7086 15.3986 59.8277 15.6992C59.9469 15.9997 60.1254 16.2731 60.3524 16.503C60.5796 16.7327 60.8505 16.9144 61.1493 17.0368C61.4481 17.1593 61.7685 17.22 62.0913 17.2156C62.414 17.22 62.7343 17.1593 63.0331 17.0368C63.3319 16.9144 63.6029 16.7327 63.8301 16.503C64.0571 16.2731 64.2356 15.9997 64.3548 15.6992C64.4739 15.3986 64.5313 15.0771 64.5236 14.7538ZM69.1458 18.2599C69.1417 18.6291 69.2114 18.9953 69.3506 19.3372C69.4897 19.679 69.6956 19.9895 69.9562 20.2505C70.2167 20.5115 70.5267 20.7179 70.8679 20.8572C71.2092 20.9967 71.5746 21.0664 71.9432 21.0624C72.3241 21.0654 72.7019 20.9923 73.0545 20.8478C73.407 20.7031 73.7274 20.4896 73.9967 20.2196C74.2662 19.9497 74.4792 19.6288 74.6237 19.2756C74.7682 18.9224 74.841 18.544 74.838 18.1622C74.8444 17.7924 74.7765 17.4251 74.6381 17.0823C74.4998 16.7393 74.2941 16.4278 74.033 16.1663C73.7719 15.9047 73.4609 15.6986 73.1187 15.5601C72.7764 15.4214 72.4098 15.3534 72.0407 15.3598C71.6589 15.3572 71.2805 15.4304 70.9273 15.5752C70.574 15.72 70.2529 15.9335 69.9825 16.2035C69.7121 16.4734 69.4979 16.7944 69.3521 17.1478C69.2064 17.5011 69.132 17.88 69.1333 18.2624L69.1458 18.2599ZM75.2755 3.23353L70.7032 14.2954H75.8105L80.3826 3.22852L75.2755 3.23353Z" fill="#6001D2"></path><path d="M86.1826 8.39013C86.1826 7.09536 86.9876 6.53186 88.0125 6.53186C88.4764 6.52806 88.9352 6.62908 89.3548 6.82739V3.13591C88.6777 2.84284 87.9449 2.70098 87.2074 2.72017C83.7653 2.72017 81.7403 4.8464 81.7403 8.29246V8.68567H80.1055V12.2795H81.7403V20.9096H86.1826V12.2795H89.1824V8.68567H86.1826V8.39013ZM95.182 20.9121V8.68815H90.7223V20.9121H95.182ZM95.4495 5.09433C95.4403 4.43622 95.1729 3.80819 94.7051 3.34609C94.2372 2.88398 93.6067 2.62494 92.9497 2.625C92.2926 2.62494 91.662 2.88398 91.1943 3.34609C90.7264 3.80819 90.459 4.43622 90.4498 5.09433C90.459 5.75245 90.7264 6.38048 91.1943 6.84259C91.662 7.3047 92.2926 7.56374 92.9497 7.56367C93.6067 7.56374 94.2372 7.3047 94.7051 6.84259C95.1729 6.38048 95.4403 5.75245 95.4495 5.09433ZM119.561 8.68815V9.98293C118.811 8.93108 117.488 8.34504 116.023 8.34504C112.703 8.34504 110.289 11.2051 110.289 14.7989C110.289 18.3927 112.678 21.2527 116.023 21.2527C117.488 21.2527 118.774 20.6667 119.561 19.6148V20.9121H123.955V8.68815H119.561ZM119.684 14.7989C119.682 15.1271 119.618 15.452 119.49 15.7546C119.363 16.0572 119.177 16.3314 118.944 16.5613C118.71 16.7911 118.432 16.9721 118.129 17.0934C117.824 17.2148 117.498 17.2742 117.171 17.2683C116.843 17.2745 116.517 17.2154 116.212 17.0941C115.908 16.973 115.631 16.7921 115.396 16.5622C115.162 16.3323 114.975 16.058 114.849 15.7552C114.722 15.4525 114.656 15.1274 114.656 14.7989C114.656 14.4705 114.722 14.1454 114.849 13.8426C114.975 13.5399 115.162 13.2655 115.396 13.0356C115.631 12.8057 115.908 12.6249 116.212 12.5037C116.517 12.3824 116.843 12.3232 117.171 12.3296C117.498 12.3236 117.824 12.383 118.129 12.5044C118.432 12.6258 118.71 12.8067 118.944 13.0365C119.177 13.2664 119.363 13.5406 119.49 13.8432C119.618 14.1458 119.682 14.4707 119.684 14.7989ZM133.38 20.9096H137.845V13.146C137.845 10.1632 136.209 8.33003 133.595 8.33003C132.155 8.33003 130.982 8.9411 130.275 10.0831V8.66561H125.812V20.8896H130.279V14.3782C130.279 13.126 130.89 12.3746 131.865 12.3746C132.84 12.3746 133.38 13.0608 133.38 14.2328V20.9096ZM104.606 20.9096H109.074V13.146C109.074 10.1632 107.439 8.33003 104.824 8.33003C103.384 8.33003 102.214 8.9411 101.504 10.0831V8.66561H97.0419V20.8896H101.507V14.3782C101.507 13.126 102.117 12.3746 103.094 12.3746C104.071 12.3746 104.594 13.0608 104.594 14.2328L104.606 20.9096ZM139.064 14.7964C139.064 18.7584 141.897 21.2502 145.581 21.2502C146.597 21.2546 147.6 21.0204 148.509 20.5666V16.5069C147.865 16.9813 147.088 17.2382 146.289 17.2407C144.727 17.2407 143.579 16.264 143.579 14.7964C143.579 13.3288 144.752 12.3521 146.289 12.3521C147.08 12.3529 147.854 12.591 148.509 13.0358V8.97866C147.615 8.56077 146.64 8.34368 145.654 8.34256C141.799 8.34256 139.064 11.0548 139.064 14.7964ZM157.904 16.7773C157.679 17.1042 157.376 17.368 157.022 17.5434C156.667 17.7188 156.273 17.8 155.879 17.7791C154.708 17.7791 153.756 17.0278 153.683 15.9209H162.103C162.135 15.6122 162.151 15.3021 162.151 14.9918C162.151 10.9847 159.563 8.34256 155.806 8.34256C154.952 8.32553 154.103 8.48145 153.311 8.80101C152.519 9.12058 151.799 9.5972 151.195 10.2023C150.591 10.8073 150.115 11.5283 149.797 12.3221C149.477 13.1158 149.322 13.966 149.338 14.8215C149.338 18.7082 151.876 21.2502 155.854 21.2502C158.538 21.2502 160.54 20.2234 161.711 18.2449L157.904 16.7773ZM153.706 13.3789C153.804 12.3771 154.658 11.716 155.781 11.716C156.904 11.716 157.733 12.3771 157.831 13.3789H153.706Z" fill="black"></path></g><defs><clipPath id="clip0_675_18026"><rect width="161.525" height="22.75" fill="white" transform="translate(0.625 2.625)"></rect></clipPath></defs></svg> 